<?xml version="1.0" standalone="no"?>
<!DOCTYPE svg PUBLIC "-//W3C//DTD SVG 20010904//EN"
 "http://www.w3.org/TR/2001/REC-SVG-20010904/DTD/svg10.dtd">
<svg version="1.0" xmlns="http://www.w3.org/2000/svg"
 width="3464.000000pt" height="1020.000000pt" viewBox="0 0 3464.000000 1020.000000"
 preserveAspectRatio="xMidYMid meet">

<g transform="translate(0.000000,1020.000000) scale(0.100000,-0.100000)"
fill="#000000" stroke="none">
<path d="M9939 9260 c-74 -39 -153 -80 -176 -92 -80 -41 -84 -38 292 -233 83
-43 159 -84 170 -91 29 -21 53 -17 82 12 47 48 22 131 -110 359 -47 81 -78
115 -105 115 -11 0 -80 -32 -153 -70z"/>
<path d="M8965 8759 c-93 -49 -194 -102 -222 -117 -85 -42 -82 -46 152 -167
94 -49 209 -110 258 -137 48 -26 96 -48 107 -48 24 0 120 46 275 134 172 97
205 119 205 136 0 9 -30 31 -72 52 -40 21 -160 82 -266 138 -145 75 -203 100
-230 100 -27 -1 -84 -26 -207 -91z"/>
<path d="M8000 8253 c-69 -36 -170 -90 -225 -119 -55 -29 -101 -57 -103 -63
-6 -17 31 -41 199 -128 90 -46 201 -104 246 -129 94 -50 131 -54 183 -22 19
12 124 66 233 120 108 54 197 104 197 112 0 7 -33 30 -72 50 -40 21 -164 84
-274 142 -121 62 -213 104 -230 104 -16 0 -85 -30 -154 -67z"/>
<path d="M10573 8023 c-47 -9 -52 -22 -229 -573 -27 -83 -28 -83 -294 -165
-135 -41 -248 -75 -252 -75 -12 0 -9 35 6 82 83 252 149 468 150 493 1 28 -1
30 -34 27 -19 -1 -53 -9 -75 -17 -22 -7 -80 -26 -130 -41 -49 -14 -108 -32
-130 -39 -22 -7 -62 -18 -89 -26 -37 -11 -54 -22 -72 -49 -12 -19 -59 -150
-104 -290 -46 -140 -91 -272 -101 -292 -18 -35 -26 -39 -107 -63 -48 -15 -105
-33 -127 -40 -84 -29 -272 -85 -285 -85 -18 0 -8 52 39 195 137 422 137 422
78 411 -18 -3 -122 -35 -231 -71 -109 -36 -205 -65 -211 -65 -7 0 -24 -9 -37
-20 -19 -14 -36 -53 -68 -152 -23 -73 -48 -152 -56 -176 -24 -72 -19 -81 29
-63 29 11 45 2 82 -48 27 -38 31 -67 13 -106 -12 -27 -28 -33 -28 -11 0 22
-14 26 -41 12 -40 -20 -106 -34 -121 -25 -40 26 -67 -14 -50 -75 14 -52 33
-53 91 -7 66 52 114 56 148 12 21 -27 22 -29 4 -45 -9 -9 -54 -24 -98 -33 -66
-14 -84 -21 -92 -40 -11 -25 -34 -29 -76 -13 -33 13 -42 36 -21 59 45 49 6 53
-121 10 -131 -43 -165 -94 -108 -161 45 -53 8 -74 -160 -92 -103 -11 -109 -13
-115 -35 -10 -43 -32 -47 -97 -20 -47 20 -59 30 -61 51 -2 19 5 31 27 48 17
12 31 25 31 30 0 5 -22 31 -49 59 -48 49 -49 49 -90 40 -52 -12 -68 -3 -97 51
l-23 43 19 49 c21 55 43 77 78 78 22 0 36 12 70 58 36 48 190 49 255 1 15 -11
33 -19 39 -17 10 4 46 105 93 260 8 27 10 50 5 53 -21 13 -110 -27 -135 -61
-29 -38 -44 -41 -79 -19 -20 14 -30 14 -77 1 -30 -7 -77 -17 -106 -21 -44 -6
-54 -4 -71 13 -11 11 -41 32 -66 47 -52 31 -70 56 -62 89 7 29 106 109 149
119 17 5 48 24 68 43 24 24 48 36 75 40 100 13 104 15 119 44 9 18 36 40 65
55 28 14 50 29 50 34 0 16 -38 40 -215 131 -336 175 -338 175 -380 147 -11 -8
-123 -67 -250 -132 -126 -65 -263 -136 -303 -157 -89 -47 -192 -89 -330 -134
-57 -19 -117 -43 -133 -55 -37 -26 -93 -133 -85 -163 3 -12 28 -60 57 -106 28
-47 54 -98 58 -115 7 -30 9 -31 90 -53 17 -5 28 -18 35 -44 8 -29 23 -45 61
-69 103 -65 219 -160 371 -303 82 -77 86 -80 129 -77 32 1 59 -5 93 -23 154
-81 173 -88 221 -81 42 6 51 3 84 -23 20 -16 49 -43 65 -58 15 -16 37 -36 48
-45 10 -8 31 -30 45 -49 18 -24 30 -32 43 -27 14 6 16 15 10 57 -5 42 -4 50 9
50 9 0 23 -10 31 -21 18 -26 46 -19 46 11 0 11 5 20 10 20 6 0 10 -4 10 -10 0
-5 7 -10 15 -10 8 0 15 9 15 19 0 11 5 23 10 26 6 4 10 -6 10 -24 0 -38 14
-46 51 -31 32 14 37 31 14 50 -19 16 -19 30 -1 30 13 0 32 -36 38 -75 2 -12
22 -30 53 -45 51 -26 58 -41 40 -82 -5 -14 -2 -18 15 -18 36 0 127 30 140 45
7 8 28 15 46 15 19 0 66 11 106 25 40 14 186 58 323 99 138 41 286 86 330 99
80 25 229 71 473 146 200 62 545 169 990 307 439 137 466 144 476 134 24 -24
-14 -44 -169 -92 -88 -27 -252 -78 -365 -113 -113 -35 -279 -86 -370 -114 -90
-28 -169 -56 -174 -61 -6 -6 9 -67 38 -162 26 -84 77 -247 113 -363 36 -115
69 -225 75 -243 16 -57 -7 -62 458 83 225 70 418 129 558 172 84 25 112 25
112 -1 0 -13 -151 -67 -395 -139 -27 -9 -147 -45 -265 -82 -118 -37 -257 -80
-309 -95 -52 -16 -100 -35 -108 -43 -14 -13 3 -73 144 -522 14 -44 38 -122 53
-174 36 -119 42 -125 100 -107 25 8 141 44 258 80 116 36 305 95 420 130 114
36 236 74 272 85 86 27 102 27 98 -1 -3 -23 -29 -32 -453 -163 -139 -42 -945
-293 -1254 -390 -129 -40 -238 -79 -242 -87 -14 -21 -6 -42 24 -56 15 -8 27
-21 27 -32 0 -11 13 -29 29 -41 16 -12 32 -32 35 -45 4 -14 16 -26 31 -30 17
-4 28 -16 33 -37 6 -22 16 -33 33 -37 20 -5 24 -12 25 -48 0 -23 3 -45 6 -48
4 -3 170 45 370 106 199 62 383 118 408 125 25 7 274 83 554 170 500 154 539
163 523 122 -5 -14 -50 -29 -372 -128 -71 -22 -141 -44 -155 -49 -14 -5 -144
-45 -290 -90 -289 -89 -566 -176 -700 -219 -57 -19 -86 -33 -88 -45 -5 -26 59
-83 108 -96 99 -26 95 -23 95 -62 1 -21 8 -45 19 -57 12 -13 16 -27 11 -41 -5
-14 -1 -28 12 -42 10 -12 18 -35 18 -57 0 -49 23 -51 138 -10 50 17 118 40
152 49 33 10 125 38 205 63 80 25 188 57 240 71 52 15 113 33 135 41 22 7 94
30 160 50 416 127 530 166 585 201 76 48 112 109 125 212 10 74 -31 236 -149
597 -41 125 -127 393 -148 465 -6 19 -16 51 -23 70 -7 19 -36 114 -65 210 -29
96 -70 228 -92 294 -21 65 -50 160 -64 210 -14 50 -36 123 -49 161 -13 39 -33
102 -44 140 -11 39 -31 106 -45 150 -14 44 -50 161 -80 260 -50 162 -118 377
-175 555 -22 69 -105 374 -116 426 -10 52 -55 79 -112 67z m-4213 -918 c14
-17 4 -55 -15 -55 -14 0 -45 26 -45 39 0 11 23 31 36 31 6 0 17 -7 24 -15z
m788 -377 c15 -15 16 -45 1 -53 -5 -4 -21 -4 -35 -1 -17 5 -24 13 -24 30 0 33
35 47 58 24z m3022 -128 c0 -5 -2 -10 -4 -10 -3 0 -8 5 -11 10 -3 6 -1 10 4
10 6 0 11 -4 11 -10z m37 -36 c3 -8 1 -25 -4 -37 -9 -20 -11 -19 -15 16 -4 37
7 51 19 21z m56 -56 c-11 -22 -23 -3 -22 35 l0 42 13 -35 c7 -19 11 -38 9 -42z
m107 41 c0 -5 -7 -9 -15 -9 -9 0 -15 9 -15 21 0 18 2 19 15 9 8 -7 15 -16 15
-21z m-330 -11 c0 -21 0 -21 -14 -2 -11 14 -18 16 -26 8 -9 -9 -4 -19 17 -40
26 -27 27 -29 8 -32 -11 -2 -25 -11 -32 -19 -10 -13 -13 -9 -18 21 -11 58 0
86 35 86 24 0 30 -4 30 -22z m60 -13 c0 -22 6 -38 18 -44 9 -6 12 -11 5 -11
-21 0 -43 31 -43 61 0 16 5 29 10 29 6 0 10 -16 10 -35z m-1817 -133 c37 -16
36 -60 -6 -137 -42 -78 -66 -90 -153 -76 -73 11 -117 33 -146 72 -17 22 -18
31 -9 66 15 54 26 62 113 78 80 15 158 14 201 -3z m2371 -611 c10 -11 16 -28
13 -38 -4 -17 -4 -17 -12 2 -4 11 -15 28 -23 38 -21 23 1 22 22 -2z m-79 -13
c-11 -36 -25 -45 -25 -17 0 27 7 39 22 39 5 0 6 -10 3 -22z m-120 -48 c4 -13
-1 -27 -14 -42 l-21 -22 0 42 c0 45 23 60 35 22z m-78 -72 c-2 -13 -4 -5 -4
17 -1 22 1 32 4 23 2 -10 2 -28 0 -40z m141 19 c4 -33 -11 -35 -32 -5 -12 17
-13 24 -3 30 19 12 32 4 35 -25z m-208 -30 c0 -36 -2 -39 -14 -27 -9 10 -12
27 -9 47 7 45 23 31 23 -20z m288 34 c3 -8 -1 -12 -9 -9 -7 2 -15 10 -17 17
-3 8 1 12 9 9 7 -2 15 -10 17 -17z m-354 -4 c11 -8 16 -21 14 -33 -4 -17 -6
-16 -16 7 -6 15 -17 29 -24 32 -7 3 -8 6 -2 6 5 1 18 -5 28 -12z m-174 -65 c0
-10 11 -25 25 -32 24 -13 35 -50 15 -50 -5 0 -7 6 -4 13 2 7 -9 23 -26 35 -29
22 -41 52 -20 52 6 0 10 -8 10 -18z m90 -17 c0 -8 10 -21 22 -29 17 -12 19
-16 6 -16 -8 0 -23 11 -32 25 -18 27 -21 49 -6 40 6 -3 10 -12 10 -20z"/>
<path d="M4930 7030 c-112 -9 -241 -26 -284 -39 -17 -5 -65 -17 -106 -27 -41
-9 -79 -21 -84 -25 -6 -5 -18 -9 -28 -9 -17 0 -116 -35 -183 -65 -391 -172
-706 -435 -938 -783 -72 -107 -151 -255 -168 -315 l-9 -31 38 35 c44 42 120
69 133 47 5 -7 9 -24 9 -38 0 -32 14 -15 29 37 19 70 104 186 173 238 101 76
187 105 314 105 113 0 212 -33 334 -112 19 -12 30 -16 24 -8 -22 29 -27 60 -9
60 43 0 29 44 -67 202 -82 137 -93 181 -60 250 49 100 186 108 255 16 13 -18
55 -91 93 -161 77 -143 116 -197 144 -197 10 0 28 -12 39 -26 25 -32 25 -32 5
48 -12 45 -15 92 -12 168 4 99 7 111 46 191 68 142 196 246 348 284 224 56
468 -66 577 -287 20 -43 37 -87 37 -100 0 -13 5 -30 10 -38 7 -11 10 -2 10 32
0 26 5 50 13 55 6 4 129 43 272 86 202 61 269 78 300 74 l40 -6 -29 23 c-15
13 -46 29 -67 35 -22 7 -54 25 -72 41 -61 53 -304 149 -480 190 -202 46 -441
65 -647 50z m168 -27 c45 -3 82 -10 82 -14 0 -5 -7 -9 -15 -9 -9 0 -25 -9 -37
-20 -14 -13 -36 -20 -62 -21 -68 -1 -156 -25 -246 -67 -30 -15 -73 -28 -95
-30 -22 -2 -41 -8 -43 -13 -2 -5 -15 -9 -30 -9 -14 0 -33 -6 -41 -14 -9 -8
-29 -16 -46 -17 -16 -2 -36 -7 -42 -12 -7 -5 -13 -6 -13 -2 0 4 -6 3 -13 -3
-7 -6 -28 -14 -47 -17 -19 -3 -40 -11 -47 -17 -7 -6 -13 -7 -13 -3 0 4 -6 3
-13 -3 -7 -6 -28 -14 -47 -17 -31 -5 -70 -16 -120 -33 -8 -3 -21 -6 -28 -8 -8
-1 -21 -6 -30 -10 -9 -4 -25 -8 -34 -9 -10 -2 -19 -3 -20 -5 -2 -1 -18 -3 -37
-5 -19 -2 -37 -9 -41 -15 -4 -7 -25 -14 -46 -17 -22 -2 -44 -10 -49 -17 -12
-16 -70 -15 -70 1 0 11 88 80 165 128 47 29 218 118 265 136 177 70 305 104
480 129 146 20 213 23 333 13z m-1268 -438 c-7 -9 -15 -13 -19 -10 -3 3 1 10
9 15 21 14 24 12 10 -5z"/>
<path d="M7495 6733 c-26 -7 -55 -33 -55 -50 0 -7 12 -36 26 -64 20 -40 25
-62 22 -109 -2 -46 1 -63 16 -79 24 -26 38 -26 62 0 36 39 107 74 164 79 l55
5 3 53 c3 47 1 52 -18 52 -12 0 -34 -8 -48 -19 -19 -13 -45 -19 -84 -19 -56 0
-58 0 -66 32 -5 17 -7 46 -5 63 4 24 0 34 -18 47 -13 9 -26 15 -29 15 -3 -1
-14 -4 -25 -6z"/>
<path d="M4945 6639 c-22 -5 -56 -12 -75 -15 -60 -10 -164 -46 -183 -63 -29
-25 -48 -80 -54 -161 -6 -83 10 -156 53 -241 77 -153 288 -260 456 -230 249
44 419 276 378 514 -14 81 -44 122 -92 130 -82 12 -270 48 -290 56 -38 14
-150 20 -193 10z"/>
<path d="M9465 6475 c-5 -2 -188 -59 -405 -125 -217 -67 -420 -130 -450 -140
-30 -10 -74 -23 -98 -30 -38 -10 -46 -17 -62 -56 -11 -24 -25 -44 -31 -44 -6
0 -27 10 -47 22 l-34 21 -69 -22 c-38 -12 -70 -25 -73 -29 -2 -4 2 -30 9 -57
39 -144 60 -202 85 -230 15 -16 33 -41 40 -54 11 -21 17 -23 68 -18 75 7 149
-9 163 -34 8 -16 4 -33 -20 -82 -16 -34 -38 -74 -48 -89 -17 -27 -17 -29 2
-65 10 -21 28 -48 38 -60 14 -16 17 -29 12 -52 -6 -28 -4 -31 17 -31 12 0 57
11 98 24 41 14 210 66 375 116 165 50 341 104 390 120 50 16 143 45 208 65 94
29 117 40 117 55 0 17 -162 548 -218 715 -25 75 -38 91 -67 80z m-416 -249 c7
-13 10 -33 7 -44 -4 -11 -2 -23 4 -27 14 -9 13 -25 -3 -25 -12 0 -37 71 -37
105 0 23 15 18 29 -9z m-112 -24 c6 -4 16 -20 22 -35 8 -21 8 -27 -3 -27 -7 0
-21 -10 -29 -22 -15 -22 -16 -21 -16 35 -1 56 3 64 26 49z m-88 -39 c6 -16 16
-36 23 -45 16 -22 5 -33 -20 -19 -15 8 -23 6 -37 -9 -10 -11 -21 -20 -25 -20
-10 0 0 49 11 56 5 3 9 18 9 35 0 37 24 39 39 2z m-132 -63 c0 -33 -3 -60 -8
-60 -5 0 -9 17 -9 39 0 23 -6 44 -15 51 -13 11 -13 15 -3 21 27 17 33 8 35
-51z m134 -161 c5 -8 9 -37 9 -66 0 -45 -4 -54 -31 -77 -29 -24 -32 -25 -59
-11 -55 28 -77 107 -44 154 15 20 23 23 66 19 28 -3 54 -12 59 -19z"/>
<path d="M4330 6345 c0 -8 4 -15 10 -15 5 0 7 7 4 15 -4 8 -8 15 -10 15 -2 0
-4 -7 -4 -15z"/>
<path d="M4353 6306 c3 -8 11 -32 18 -54 6 -22 27 -54 45 -72 19 -17 34 -29
34 -26 0 6 -38 76 -69 129 -23 37 -38 50 -28 23z"/>
<path d="M4230 6242 c0 -4 11 -24 25 -44 14 -20 25 -40 25 -43 0 -4 9 -19 21
-33 l21 -27 -7 40 c-9 48 -85 144 -85 107z"/>
<path d="M3790 6087 c-14 -7 -33 -30 -44 -52 -10 -22 -32 -58 -50 -80 -47 -61
-97 -139 -162 -255 -110 -197 -119 -228 -81 -293 81 -138 278 -226 440 -197
306 55 466 377 325 654 -29 56 -112 141 -173 176 -90 51 -204 73 -255 47z"/>
<path d="M6240 6089 c-67 -19 -139 -51 -157 -71 -17 -20 -17 -21 2 -32 11 -6
40 -31 63 -55 l44 -43 40 38 c22 22 46 51 53 65 8 14 28 32 44 39 34 14 51 48
30 61 -18 11 -74 10 -119 -2z"/>
<path d="M6372 6032 c-11 -15 -22 -36 -24 -47 -3 -17 3 -20 47 -23 28 -1 59
-7 70 -12 11 -5 32 -14 48 -20 32 -11 34 -29 7 -89 -25 -53 -25 -56 0 -81 45
-45 80 -12 107 103 7 33 22 71 33 84 21 27 26 68 11 92 -8 12 -18 13 -63 3
-105 -23 -122 -23 -161 -2 -48 26 -52 25 -75 -8z"/>
<path d="M8083 6044 c-18 -8 -16 -30 4 -61 12 -18 17 -48 18 -95 1 -77 15 -97
49 -74 41 27 42 40 10 138 -30 94 -43 108 -81 92z"/>
<path d="M5974 5913 c-44 -48 -72 -123 -45 -123 8 0 53 78 70 123 13 34 7 34
-25 0z"/>
<path d="M8023 5878 c-11 -13 -26 -33 -32 -45 -6 -13 -20 -23 -29 -23 -10 0
-27 -7 -38 -15 -34 -26 -51 -18 -79 40 -24 48 -31 55 -57 55 -17 0 -39 -10
-53 -25 -41 -40 -37 -50 58 -127 15 -13 34 -41 41 -63 17 -49 59 -84 83 -69 9
6 21 24 26 40 17 51 67 114 105 132 43 20 49 37 28 86 -17 42 -25 44 -53 14z"/>
<path d="M7152 5709 c-25 -9 -128 -15 -150 -8 -7 2 -19 -10 -27 -29 -13 -30
-13 -33 3 -38 9 -3 24 -9 32 -13 9 -5 30 -12 48 -16 26 -5 33 -11 31 -28 -2
-12 5 -35 16 -51 13 -19 19 -44 17 -72 -2 -48 13 -57 43 -28 11 12 15 31 14
68 -3 58 5 90 32 125 33 41 20 102 -20 100 -9 0 -26 -4 -39 -10z"/>
<path d="M9675 5585 c-38 -13 -189 -60 -335 -105 -146 -45 -305 -94 -355 -110
-49 -16 -156 -49 -237 -75 -123 -38 -148 -49 -148 -65 0 -10 5 -22 10 -25 6
-3 10 -42 10 -85 0 -72 -2 -82 -28 -112 -15 -18 -36 -45 -45 -60 -30 -49 -180
-147 -224 -148 -10 -1 -65 -14 -123 -31 -135 -38 -234 -56 -390 -69 -69 -6
-162 -18 -207 -26 -60 -11 -151 -14 -342 -12 -144 1 -263 -1 -267 -4 -3 -3 0
-23 6 -45 7 -25 10 -131 8 -313 l-3 -274 -30 -8 c-16 -4 -66 -17 -110 -29 -44
-12 -93 -22 -110 -23 l-30 -1 -6 115 c-11 203 -10 515 2 549 6 18 9 35 5 38
-7 8 -204 32 -265 32 -40 1 -43 -1 -37 -21 11 -37 33 -353 46 -636 l11 -263
-36 -55 c-149 -225 -135 -510 37 -754 38 -55 38 -55 48 -190 8 -115 25 -473
25 -535 0 -42 -34 -25 -123 62 l-91 88 -5 85 c-3 47 -13 180 -21 295 -22 311
-33 466 -50 705 -29 416 -36 517 -51 700 -8 102 -17 268 -19 369 -3 136 -8
187 -17 192 -12 6 -184 42 -259 54 -41 6 -133 49 -222 103 -31 19 -60 32 -64
28 -4 -3 -1 -46 5 -94 27 -204 27 -209 -2 -238 -14 -15 -26 -31 -26 -37 0 -6
6 -4 13 5 6 8 20 18 29 21 20 7 17 25 52 -273 22 -184 24 -216 12 -228 -12
-12 -17 -11 -31 12 -10 15 -52 51 -95 81 -100 71 -107 79 -90 110 10 19 11 30
2 50 -23 50 -15 77 38 129 28 27 50 52 50 56 0 10 -137 -126 -142 -141 -4 -11
-11 -10 -34 4 -16 10 -45 25 -64 33 -19 9 -46 26 -60 39 -14 12 -38 29 -55 38
-55 29 -200 94 -225 102 -14 4 -41 19 -61 32 -22 15 -62 28 -102 33 -35 5 -77
14 -91 20 -40 15 -111 13 -99 -2 17 -22 21 -67 8 -85 -12 -15 -18 -16 -47 -5
-49 17 -413 16 -498 -2 -58 -13 -66 -13 -77 2 -18 22 -16 35 8 66 24 30 20 41
-9 32 -11 -4 -22 -19 -26 -36 -5 -25 -10 -30 -35 -30 -16 0 -42 5 -58 11 -48
18 -181 13 -245 -9 -143 -51 -256 -175 -273 -298 l-6 -51 48 -29 c26 -16 68
-36 93 -45 25 -9 130 -49 233 -89 167 -65 188 -75 185 -94 -2 -13 -12 -22 -25
-24 -20 -3 -23 -10 -23 -44 0 -40 0 -40 -32 -34 -48 9 -62 27 -47 58 14 31 -3
71 -29 66 -13 -3 -17 -14 -16 -46 1 -47 -2 -48 -71 -22 -29 11 -29 12 -13 57
10 28 10 36 -4 49 -35 35 -63 -9 -37 -58 11 -20 9 -21 -24 -15 -36 6 -64 16
-165 63 -30 14 -81 34 -114 45 -71 25 -71 25 -88 -70 -6 -36 -15 -91 -20 -121
-6 -30 -14 -100 -20 -155 -5 -55 -16 -156 -25 -225 -22 -186 -22 -187 23 -206
43 -18 461 -156 637 -209 225 -68 279 -86 291 -96 7 -6 40 -11 74 -12 l60 -2
-6 -27 c-5 -26 -4 -28 30 -28 l35 0 -3 -44 c-2 -31 1 -47 10 -50 10 -4 14 3
14 20 0 30 23 41 56 26 27 -13 31 -38 9 -62 -14 -16 -10 -19 49 -38 157 -52
435 -95 563 -89 195 10 267 48 306 157 26 74 56 120 78 120 10 0 40 -27 70
-62 28 -35 59 -67 68 -72 31 -17 124 -112 196 -201 72 -89 99 -147 125 -265 4
-19 22 -89 40 -155 37 -134 39 -145 70 -300 44 -226 53 -258 87 -323 63 -119
115 -185 277 -353 135 -138 171 -183 224 -272 35 -59 75 -116 89 -127 33 -26
103 -26 198 -1 125 32 317 79 490 120 319 75 341 94 435 371 10 30 32 93 50
140 17 47 52 148 77 225 65 201 74 222 116 270 68 79 191 92 227 25 6 -11 24
-64 40 -118 16 -53 45 -133 65 -177 20 -44 45 -99 56 -122 10 -23 19 -45 19
-48 0 -20 128 -199 151 -211 44 -22 104 -17 254 25 77 21 255 66 395 101 275
68 305 82 339 148 27 54 35 119 71 541 5 63 12 122 15 131 6 20 25 289 32 453
5 114 4 119 -21 151 -21 28 -38 37 -96 51 -61 15 -70 20 -58 31 8 8 38 21 68
29 157 45 322 95 341 106 9 4 22 29 28 55 7 25 30 72 53 104 l41 58 -18 58
c-10 33 -26 84 -35 114 -10 30 -28 89 -40 130 -91 301 -80 276 -132 291 -56
15 -90 33 -133 71 l-36 31 -72 -23 c-40 -12 -85 -26 -102 -30 -16 -5 -66 -20
-110 -33 -44 -14 -163 -51 -265 -82 -195 -60 -216 -66 -373 -109 -130 -35
-197 -37 -197 -5 0 14 78 47 143 60 46 8 61 16 69 34 8 19 7 29 -4 47 -13 20
-22 23 -62 20 -39 -3 -49 -8 -56 -28 -11 -28 -16 -30 -23 -10 -3 8 3 27 15 41
15 20 18 29 9 38 -8 8 -14 8 -23 -1 -9 -9 -17 -5 -34 14 -23 24 -23 25 -4 44
11 11 20 25 20 30 0 15 -26 12 -41 -6 -7 -8 -25 -22 -41 -30 -15 -8 -28 -21
-28 -28 0 -8 -19 -22 -42 -32 -24 -10 -46 -20 -50 -22 -10 -4 -10 30 -2 52 3
9 13 16 21 16 16 0 73 53 73 68 0 15 -32 24 -44 12 -21 -21 -37 -11 -30 18 9
37 7 36 52 14 49 -24 71 -15 57 23 -7 19 -22 31 -49 40 -21 8 -42 17 -46 22
-11 11 18 177 32 182 6 2 78 59 159 127 l149 124 55 -16 c32 -9 80 -14 113
-12 l58 3 177 -210 c97 -115 177 -217 177 -226 0 -9 -7 -38 -15 -65 -11 -38
-12 -51 -2 -61 20 -20 32 -2 50 71 14 56 15 72 4 85 -11 15 -217 263 -311 375
-68 82 -62 79 -133 71 -47 -5 -76 -2 -113 10 -27 9 -56 15 -64 13 -8 -2 -75
-54 -150 -115 -74 -62 -140 -113 -146 -113 -9 0 -10 13 -5 46 9 59 14 74 29
74 6 0 67 47 136 105 69 58 130 105 136 105 7 0 32 -11 55 -25 45 -25 112 -32
153 -16 35 14 62 1 72 -32 6 -22 16 -33 32 -35 16 -3 25 -12 29 -34 4 -18 14
-33 28 -38 13 -5 26 -14 30 -19 11 -19 44 -12 264 55 520 159 586 181 589 198
4 18 -95 346 -108 360 -11 11 -26 7 -300 -79 -118 -37 -249 -77 -290 -90 -41
-13 -140 -43 -220 -68 -80 -25 -239 -75 -355 -111 -115 -36 -215 -66 -223 -66
-9 0 -12 9 -10 26 3 26 12 30 193 85 105 31 255 78 335 102 123 39 508 158
765 237 39 12 74 26 79 30 7 7 -84 321 -105 363 -12 21 -18 21 -104 -8z
m-3819 -794 c16 -5 41 -12 56 -15 15 -4 32 -14 37 -24 12 -22 27 -132 46 -337
24 -255 33 -349 50 -530 9 -93 20 -217 26 -275 5 -58 16 -175 24 -260 8 -85
21 -227 30 -315 20 -208 37 -394 38 -424 3 -41 -21 -35 -82 23 l-58 56 -17
153 c-9 83 -21 188 -26 232 -5 44 -16 150 -25 235 -9 85 -20 193 -25 240 -5
47 -16 153 -25 235 -27 260 -57 545 -80 757 -16 147 -19 241 -8 251 8 9 4 9
39 -2z m2564 -14 c0 -10 -53 -403 -90 -662 -58 -414 -90 -640 -99 -715 -53
-395 -115 -807 -125 -817 -6 -7 -26 -15 -44 -19 -30 -6 -32 -5 -32 21 0 16 4
56 10 89 5 34 16 115 25 181 22 175 34 267 50 380 8 55 21 154 30 220 8 66 20
149 25 185 5 36 16 119 25 185 8 66 20 149 25 185 5 36 16 117 25 180 72 546
75 562 107 578 22 10 68 16 68 9z m-314 -93 c7 -29 -2 -131 -46 -514 -17 -146
-35 -301 -40 -345 -5 -44 -16 -143 -25 -220 -9 -77 -20 -178 -25 -225 -5 -47
-16 -146 -25 -220 -9 -74 -20 -171 -25 -215 -36 -351 -44 -409 -60 -425 -18
-18 -157 -56 -167 -46 -6 6 9 215 28 371 8 68 14 87 48 135 57 81 88 148 112
241 18 70 21 101 16 194 -5 114 -21 175 -64 252 -26 47 -29 110 -13 253 12
108 38 380 50 533 9 113 26 204 39 219 5 6 108 26 183 37 4 1 11 -11 14 -25z
m-520 -51 c15 -15 16 -33 11 -163 -9 -210 -27 -481 -32 -507 -6 -27 -25 -29
-65 -8 -17 9 -69 26 -117 39 l-88 23 2 258 c2 198 6 271 18 311 l15 53 98 4
c53 1 107 4 119 5 12 1 29 -6 39 -15z m-2800 -18 c9 -36 -2 -57 -28 -53 -39 5
-38 78 1 78 14 0 23 -9 27 -25z m132 -68 c2 -15 -1 -27 -5 -27 -15 0 -33 23
-33 43 0 30 34 16 38 -16z m128 -15 c19 -12 28 -54 13 -63 -22 -13 -49 9 -49
41 0 29 13 37 36 22z m122 -71 c11 -31 7 -41 -14 -41 -15 0 -29 43 -19 59 11
19 23 12 33 -18z m100 -59 c2 -24 -1 -32 -13 -32 -17 0 -39 46 -29 61 13 21
39 3 42 -29z m92 -43 c0 -23 -28 -25 -36 -4 -4 8 -3 22 0 31 5 13 9 14 21 4 8
-7 15 -21 15 -31z m102 -54 c18 -40 12 -49 -22 -32 -26 13 -36 37 -26 62 8 22
30 8 48 -30z m283 -347 c8 -40 26 -171 32 -242 4 -51 3 -67 -6 -62 -6 4 -11
17 -11 29 0 12 -9 66 -20 120 -11 55 -20 116 -20 138 0 42 16 53 25 17z m1590
-7 c275 -72 446 -238 490 -475 23 -124 10 -229 -46 -354 -91 -203 -278 -359
-500 -417 -99 -26 -300 -17 -397 18 -109 38 -176 82 -273 177 -96 95 -147 177
-185 296 -32 99 -33 251 -4 345 68 223 285 390 555 429 87 13 279 3 360 -19z
m2375 -16 c28 -19 69 -40 91 -46 22 -7 43 -17 48 -23 7 -10 38 -103 96 -296
15 -47 32 -103 40 -125 31 -88 30 -113 -3 -159 -17 -24 -39 -65 -49 -92 l-18
-49 -130 -42 c-345 -111 -354 -114 -393 -97 -47 19 -72 42 -72 66 0 27 -19 22
-26 -7 -7 -28 -29 -32 -59 -11 -11 7 -37 16 -57 20 -42 8 -53 36 -15 36 12 1
33 7 47 15 14 8 37 14 52 15 15 0 30 5 33 10 3 6 16 10 28 10 12 0 35 7 51 15
15 8 35 15 43 15 17 0 108 28 135 41 10 5 24 9 32 9 8 0 18 5 22 11 5 8 0 10
-17 6 -88 -21 -115 -29 -123 -38 -6 -5 -22 -9 -37 -9 -15 0 -30 -4 -33 -9 -3
-4 -24 -11 -46 -15 -23 -3 -49 -10 -58 -15 -9 -5 -44 -17 -77 -26 -33 -9 -70
-21 -83 -26 -36 -14 -105 -11 -130 7 -19 13 -22 21 -16 50 5 30 3 35 -21 44
-41 16 -53 12 -70 -20 -19 -38 -33 -38 -135 0 -112 41 -124 55 -117 125 7 71
30 101 75 97 43 -4 49 14 27 91 -30 109 -28 106 -72 96 -53 -12 -60 -11 -67 7
-10 26 152 89 504 195 58 17 141 42 185 56 44 13 118 36 165 50 47 14 101 32
120 39 54 20 74 17 130 -21z m-1182 -23 c3 -9 -2 -13 -14 -10 -9 1 -19 9 -22
16 -3 9 2 13 14 10 9 -1 19 -9 22 -16z m-4267 -122 c-3 -8 -6 -34 -9 -57 -3
-34 0 -43 16 -52 44 -23 65 41 37 112 -6 13 -2 17 18 17 47 0 52 -6 49 -65 -4
-62 8 -85 43 -85 35 0 48 24 42 76 -4 38 -2 45 12 42 13 -3 15 -15 12 -78 -1
-41 -5 -77 -7 -79 -3 -3 -62 -8 -132 -12 -145 -9 -236 -24 -305 -50 -60 -24
-57 -24 -57 7 0 16 11 35 31 51 28 24 30 30 27 82 -2 56 -2 56 35 74 42 21 62
16 47 -13 -12 -23 -13 -70 -1 -89 13 -20 50 -4 57 25 6 22 2 52 -12 87 -7 18
16 26 66 24 26 -2 34 -6 31 -17z m429 -95 c0 -11 -5 -27 -10 -35 -7 -11 -10
-1 -10 35 0 36 3 46 10 35 5 -8 10 -24 10 -35z m-3 -197 c-2 -13 -4 -5 -4 17
-1 22 1 32 4 23 2 -10 2 -28 0 -40z m1132 -123 c6 -16 17 -93 26 -170 9 -77
20 -170 26 -207 5 -37 9 -87 9 -112 l0 -45 -44 30 c-25 16 -48 39 -51 49 -4
11 -13 20 -21 20 -8 0 -72 56 -142 125 -69 69 -132 125 -139 125 -24 0 -30 31
-14 75 14 41 14 45 -3 64 -11 12 -24 21 -31 21 -18 0 -145 67 -139 73 3 3 17
2 31 -4 13 -5 40 -9 58 -9 41 0 60 27 51 71 -3 16 -1 29 4 29 6 0 10 -11 10
-24 0 -77 38 -129 67 -90 7 10 13 33 13 51 0 18 2 33 5 33 2 0 54 -20 115 -45
61 -25 117 -45 125 -45 12 0 15 17 16 78 l2 77 8 -70 c5 -38 13 -83 18 -100z
m2871 94 c0 -20 -15 -26 -25 -10 -3 5 -19 13 -36 16 l-32 7 29 24 29 23 18
-20 c9 -12 17 -30 17 -40z m-3993 -31 c-3 -8 -6 -5 -6 6 -1 11 2 17 5 13 3 -3
4 -12 1 -19z m8 -154 c-8 -72 4 -104 40 -104 29 0 39 25 29 75 -6 33 -5 35 22
35 65 0 73 -7 71 -67 -1 -58 9 -73 49 -73 29 0 37 25 23 67 -6 19 -8 37 -5 40
3 3 26 0 51 -7 44 -12 45 -13 39 -49 -7 -48 10 -91 36 -91 22 0 24 6 21 63 -2
27 1 37 12 37 23 0 34 -21 39 -78 3 -29 12 -60 22 -70 21 -24 20 -42 -2 -42
-11 0 -54 9 -98 21 -43 11 -157 40 -251 64 -95 25 -188 52 -205 62 l-33 17 35
7 c46 10 63 35 56 81 -5 31 -2 39 14 48 13 7 20 21 21 43 0 31 0 31 10 7 6
-14 7 -52 4 -86z m-165 -374 c0 -5 -4 -10 -10 -10 -5 0 -10 5 -10 10 0 6 5 10
10 10 6 0 10 -4 10 -10z m114 -31 c-3 -5 -10 -7 -15 -3 -5 3 -7 10 -3 15 3 5
10 7 15 3 5 -3 7 -10 3 -15z m-99 -20 c8 -26 -6 -42 -28 -33 -17 6 -23 35 -10
47 13 14 32 7 38 -14z m205 5 c0 -8 -4 -12 -10 -9 -5 3 -10 10 -10 16 0 5 5 9
10 9 6 0 10 -7 10 -16z m364 -15 c-3 -5 -10 -7 -15 -3 -5 3 -7 10 -3 15 3 5
10 7 15 3 5 -3 7 -10 3 -15z m-464 -20 c0 -24 -23 -21 -28 4 -2 10 3 17 12 17
10 0 16 -9 16 -21z m110 -20 c0 -5 -7 -9 -15 -9 -15 0 -20 12 -9 23 8 8 24 -1
24 -14z m2100 -126 c41 -13 86 -30 100 -37 l25 -12 3 -166 c3 -197 11 -183
-132 -219 -86 -21 -90 -21 -103 -3 -10 13 -13 71 -13 239 0 122 3 225 7 229 4
3 14 4 22 0 9 -3 50 -17 91 -31z m606 -115 c-5 -95 -12 -147 -20 -156 -17 -17
-196 -63 -218 -56 -16 5 -17 17 -11 132 3 70 9 134 14 143 4 8 34 21 65 28 31
7 75 21 98 31 81 37 80 39 72 -122z m314 -384 c17 -43 12 -65 -54 -276 -75
-235 -83 -258 -101 -278 -7 -8 -27 -55 -44 -105 -40 -122 -56 -158 -78 -176
-28 -25 -97 -47 -248 -79 -156 -32 -250 -56 -266 -66 -6 -3 -38 -12 -72 -19
-49 -11 -65 -11 -75 -1 -7 7 -17 53 -22 102 -6 49 -17 148 -26 219 -9 72 -19
191 -21 266 l-5 136 31 35 c23 26 46 39 94 52 59 16 117 14 117 -3 0 -4 6 -14
13 -22 6 -8 11 -12 10 -10 -2 2 11 17 29 33 40 36 74 37 80 3 3 -13 2 -23 -1
-22 -3 1 -8 -2 -9 -8 -12 -34 -36 -40 -68 -15 -11 8 -16 10 -11 5 4 -4 1 -15
-7 -24 -20 -22 -30 -67 -17 -75 5 -4 18 3 29 14 18 19 52 19 52 0 0 -11 33 -7
43 5 4 6 7 33 6 60 -2 56 20 119 48 133 27 14 179 52 209 52 15 0 35 -7 45
-15 14 -13 15 -23 7 -58 -15 -68 -15 -277 1 -286 11 -7 10 -15 -3 -43 -12 -26
-14 -41 -7 -60 6 -16 6 -30 0 -37 -5 -6 -6 -9 -3 -6 3 2 23 -7 44 -20 35 -22
39 -23 52 -8 13 16 15 38 21 208 2 50 8 99 14 110 6 11 13 70 16 130 6 105 7
111 34 132 26 21 78 40 116 42 10 1 22 -10 27 -25z m-244 -240 c3 -34 -9 -21
-14 14 -2 15 0 23 4 20 4 -4 8 -19 10 -34z m13 -201 c12 -41 9 -48 -14 -40 -9
4 -15 19 -15 42 0 46 16 45 29 -2z"/>
<path d="M6969 3895 c-150 -29 -284 -98 -369 -192 -195 -213 -172 -523 55
-749 131 -130 289 -197 470 -198 387 -1 703 345 641 703 -46 262 -283 435
-611 446 -70 3 -138 -1 -186 -10z m-34 -197 c11 -6 29 -22 41 -36 l20 -24 17
25 c35 54 157 56 189 4 33 -53 40 -95 27 -148 -18 -69 -54 -99 -120 -99 -77 0
-102 26 -135 138 -3 11 -8 10 -26 -2 -12 -9 -37 -16 -54 -16 -35 0 -44 -13
-44 -61 0 -40 -38 -59 -74 -36 -24 16 -24 17 -19 134 3 65 10 124 16 131 12
16 126 8 162 -10z m498 1 c29 -16 37 -28 37 -64 0 -45 -25 -73 -76 -86 -29 -8
-44 -17 -45 -28 -1 -22 -8 -63 -14 -79 -3 -8 -17 -12 -37 -10 -30 3 -33 7 -41
48 -13 72 -5 209 13 220 21 14 137 12 163 -1z m-622 -352 c26 -17 34 -30 34
-52 0 -39 -31 -48 -41 -11 -18 74 -71 45 -81 -45 -4 -37 0 -66 10 -92 22 -51
50 -50 77 4 13 25 26 39 35 35 16 -6 25 14 25 60 0 54 44 95 106 101 93 9 144
-42 144 -147 0 -90 -42 -140 -118 -140 -52 0 -93 20 -117 56 l-17 27 -25 -32
c-23 -29 -29 -31 -85 -31 -55 0 -63 3 -93 33 -87 87 -33 257 81 257 17 0 46
-10 65 -23z m793 -9 c3 -13 6 -69 6 -125 0 -84 -3 -104 -16 -111 -28 -16 -51
-2 -94 54 -22 30 -45 54 -49 54 -14 0 -20 -26 -15 -62 6 -39 -9 -69 -26 -52
-7 7 -10 54 -8 130 l3 119 26 3 c22 3 35 -8 78 -62 28 -37 56 -66 61 -66 6 0
10 31 10 70 0 69 12 92 24 48z m-257 -20 c27 -25 29 -54 7 -86 -14 -21 -14
-26 1 -58 9 -19 15 -49 13 -67 -3 -29 -6 -32 -40 -35 -39 -3 -40 -2 -53 71 -9
53 -35 50 -35 -4 0 -56 -14 -79 -50 -79 -19 0 -33 7 -40 19 -15 29 -13 236 3
249 34 28 160 22 194 -10z"/>
<path d="M6854 3646 c-8 -32 2 -59 19 -54 18 7 20 53 3 67 -13 11 -16 9 -22
-13z"/>
<path d="M7090 3650 c-16 -29 -13 -163 4 -186 12 -15 17 -16 27 -7 15 15 24
118 15 167 -8 40 -31 54 -46 26z"/>
<path d="M7347 3663 c-11 -10 -8 -71 3 -78 16 -10 40 14 40 39 0 32 -27 56
-43 39z"/>
<path d="M6976 3294 c-14 -37 -18 -123 -6 -158 23 -71 55 -32 55 69 0 28 -4
62 -8 78 -8 30 -31 36 -41 11z"/>
<path d="M7247 3303 c-4 -3 -7 -18 -7 -33 0 -15 3 -30 7 -33 10 -10 33 13 33
33 0 20 -23 43 -33 33z"/>
<path d="M9640 3835 c0 -3 4 -13 9 -23 8 -16 14 -37 57 -182 9 -30 19 -64 24
-75 4 -11 16 -47 25 -80 10 -33 21 -69 25 -80 4 -11 15 -46 25 -77 10 -32 23
-58 28 -58 5 0 6 10 2 23 -3 12 -10 37 -15 56 -5 18 -13 38 -19 44 -6 6 -11
22 -11 36 0 13 -11 56 -23 95 -13 39 -32 98 -42 131 -9 33 -21 68 -26 77 -5
10 -9 27 -9 38 0 26 -27 80 -40 80 -6 0 -10 -2 -10 -5z"/>
<path d="M9754 3820 c-12 -5 -25 -13 -28 -19 -7 -11 20 -71 32 -71 17 1 30 17
36 46 8 37 -9 56 -40 44z"/>
<path d="M9377 3803 c-16 -15 -5 -44 31 -81 20 -22 42 -48 48 -58 12 -20 44
-13 44 10 0 15 -98 136 -110 136 -4 0 -10 -3 -13 -7z"/>
<path d="M9234 3756 c-3 -14 2 -41 14 -67 11 -24 22 -53 24 -64 4 -22 35 -32
50 -17 6 6 4 22 -6 43 -8 19 -20 55 -28 82 -14 53 -43 65 -54 23z"/>
<path d="M9107 3733 c-15 -15 -4 -34 48 -88 35 -37 60 -55 70 -51 26 10 17 32
-37 90 -49 54 -67 64 -81 49z"/>
<path d="M9766 3707 c-15 -11 -16 -17 -8 -33 6 -10 21 -55 33 -99 12 -44 27
-91 34 -105 7 -14 16 -44 20 -65 4 -22 14 -50 21 -63 14 -21 16 -21 44 -7 17
9 30 17 30 18 0 2 -17 57 -38 122 -21 66 -47 148 -58 182 -20 67 -39 79 -78
50z"/>
<path d="M9040 3700 c0 -5 5 -10 11 -10 5 0 7 5 4 10 -3 6 -8 10 -11 10 -2 0
-4 -4 -4 -10z"/>
<path d="M8945 3681 c-3 -5 -1 -20 5 -33 5 -13 17 -49 25 -80 16 -57 26 -66
54 -49 12 8 12 14 1 41 -12 29 -12 34 3 45 22 16 22 25 -1 25 -23 0 -42 19
-42 42 0 19 -34 26 -45 9z"/>
<path d="M8880 3650 c0 -5 5 -10 10 -10 6 0 10 5 10 10 0 6 -4 10 -10 10 -5 0
-10 -4 -10 -10z"/>
<path d="M9360 3640 c0 -5 5 -10 10 -10 6 0 10 5 10 10 0 6 -4 10 -10 10 -5 0
-10 -4 -10 -10z"/>
<path d="M8756 3627 c-16 -12 -16 -14 4 -40 12 -15 29 -27 37 -27 9 0 38 -13
65 -30 51 -32 63 -35 72 -21 12 19 -7 40 -78 85 -41 25 -76 46 -78 46 -2 0
-12 -6 -22 -13z"/>
<path d="M9094 3568 c-4 -5 -4 -11 -2 -14 7 -6 68 7 68 16 0 10 -60 8 -66 -2z"/>
<path d="M9294 3498 c7 -38 32 -78 47 -78 7 0 9 10 5 28 -4 15 -10 39 -13 55
-4 19 -11 27 -25 27 -18 0 -20 -4 -14 -32z"/>
<path d="M9166 3490 c-10 -24 18 -104 37 -108 13 -3 17 4 17 30 0 39 -45 103
-54 78z"/>
<path d="M8801 3476 c-12 -14 -5 -26 16 -26 15 0 18 26 4 34 -5 3 -14 0 -20
-8z"/>
<path d="M9035 3450 c-3 -5 1 -20 9 -32 9 -12 16 -33 16 -45 0 -16 6 -23 19
-23 11 0 23 5 27 11 3 6 17 8 29 5 24 -6 49 14 27 22 -7 2 -31 19 -53 38 -42
35 -63 42 -74 24z"/>
<path d="M8933 3400 c-6 -24 -19 -26 -27 -5 -6 17 -32 20 -41 5 -7 -11 42
-110 54 -110 6 0 13 9 16 20 5 15 12 19 31 14 28 -7 29 -5 9 32 -8 16 -15 37
-15 47 0 24 -21 22 -27 -3z"/>
<path d="M9441 3376 c-23 -25 -22 -34 6 -67 12 -14 19 -15 44 -6 24 9 29 17
29 44 0 27 -5 35 -26 43 -32 13 -27 14 -53 -14z"/>
<path d="M8760 3369 c-11 -8 -12 -12 -2 -16 22 -9 42 -34 42 -52 0 -26 28 -47
42 -33 9 9 8 18 0 37 -7 14 -12 37 -12 50 0 21 -5 25 -27 25 -16 0 -35 -5 -43
-11z"/>
<path d="M9259 3317 c-15 -20 -15 -26 -2 -51 11 -21 20 -27 36 -22 12 3 28 6
35 6 7 0 12 15 12 39 0 32 -4 40 -22 45 -35 9 -42 7 -59 -17z"/>
<path d="M9080 3260 c-10 -25 -10 -34 4 -54 14 -22 19 -24 46 -15 25 9 30 16
30 45 0 28 -5 36 -26 44 -37 14 -40 13 -54 -20z"/>
<path d="M9510 3164 c0 -25 26 -84 37 -84 17 0 18 61 1 78 -13 13 -38 16 -38
6z"/>
<path d="M9406 3125 c-3 -8 -13 -15 -21 -15 -12 0 -15 -8 -13 -27 2 -17 9 -28
18 -28 10 0 14 9 13 28 -2 30 13 35 43 12 21 -16 54 -20 54 -7 0 12 -57 52
-74 52 -7 0 -16 -7 -20 -15z"/>
<path d="M7151 1804 c7 -9 3 -19 -15 -37 -15 -15 -27 -21 -29 -14 -3 7 -4 0
-3 -16 1 -23 3 -25 12 -12 9 13 13 13 18 3 3 -7 3 -3 1 9 -3 12 -1 24 5 28 6
4 9 3 8 -2 -2 -4 2 -10 7 -13 6 -3 11 11 13 31 2 27 -1 36 -12 36 -11 0 -13
-4 -5 -13z"/>
<path d="M7046 1795 c-3 -8 -1 -15 4 -15 6 0 10 7 10 15 0 8 -2 15 -4 15 -2 0
-6 -7 -10 -15z"/>
<path d="M7064 1756 c-3 -8 -3 -19 0 -25 4 -5 -5 -20 -18 -33 -22 -20 -25 -31
-23 -77 2 -54 2 -55 35 -57 26 -2 32 1 32 17 0 10 -4 19 -10 19 -5 0 -10 7
-10 15 0 8 5 15 10 15 6 0 10 8 10 18 0 14 2 15 10 2 20 -30 11 18 -10 55 -20
36 -29 74 -10 45 6 -9 10 -10 10 -3 0 19 -20 26 -26 9z m-7 -136 c2 -11 -2
-20 -7 -20 -6 0 -10 -7 -10 -17 0 -9 -3 -14 -6 -10 -4 3 -3 22 0 43 7 37 18
39 23 4z"/>
<path d="M7133 1625 c-27 -30 -12 -67 29 -70 22 -2 23 17 3 55 -18 34 -16 34
-32 15z"/>
<path d="M4820 5330 c-24 -24 -27 -82 -4 -104 23 -23 89 -21 115 5 16 16 19
28 14 52 -13 62 -83 89 -125 47z"/>
<path d="M7565 5320 c-4 -6 -4 -32 0 -59 5 -37 3 -50 -9 -60 -9 -8 -16 -27
-16 -43 0 -22 -7 -33 -30 -46 -19 -11 -30 -25 -30 -39 0 -16 -11 -28 -39 -43
-43 -21 -71 -54 -71 -82 0 -14 8 -18 33 -18 17 0 39 -4 46 -9 30 -19 51 6 51
59 0 28 2 50 4 50 2 0 20 -7 39 -15 48 -20 106 -20 114 1 3 8 0 32 -6 52 -18
52 -18 141 -1 180 15 33 14 35 -13 58 -30 25 -61 31 -72 14z"/>
<path d="M5827 5272 c-10 -10 -17 -24 -17 -30 0 -17 43 -15 66 3 19 15 19 15
0 30 -25 19 -29 19 -49 -3z"/>
<path d="M6054 5258 c-8 -13 43 -61 60 -55 18 6 18 33 1 51 -19 19 -51 21 -61
4z"/>
<path d="M8295 5150 c-11 -4 -36 -24 -54 -44 -42 -44 -55 -46 -47 -6 4 25 2
30 -13 30 -20 0 -51 -30 -51 -49 0 -6 11 -16 24 -20 14 -6 25 -20 29 -39 7
-32 6 -32 201 -44 45 -3 61 18 21 28 -30 8 -70 74 -70 118 0 32 -10 39 -40 26z"/>
<path d="M6194 5063 c-6 -41 -4 -49 16 -65 33 -27 53 -19 64 26 8 36 7 42 -18
63 -41 35 -54 30 -62 -24z"/>
<path d="M6325 5050 c3 -5 13 -10 21 -10 8 0 12 5 9 10 -3 6 -13 10 -21 10 -8
0 -12 -4 -9 -10z"/>
<path d="M5006 5010 c-85 -75 -35 -200 80 -200 28 0 44 8 70 34 29 29 34 41
34 81 0 40 -5 52 -34 81 -46 46 -100 48 -150 4z m102 -46 c26 -18 29 -56 6
-78 -31 -31 -84 -11 -84 32 0 31 9 47 30 55 23 8 24 8 48 -9z"/>
<path d="M4625 4979 c-12 -19 3 -22 27 -5 l22 16 -21 0 c-12 0 -25 -5 -28 -11z"/>
<path d="M2204 4562 c-6 -4 -15 -18 -19 -32 -4 -14 -21 -40 -38 -59 -35 -41
-35 -41 -148 -340 -87 -229 -125 -342 -176 -529 -39 -140 -28 -151 165 -173
48 -5 157 -21 243 -34 184 -29 280 -32 299 -9 8 8 19 36 26 62 6 26 16 47 20
46 17 -2 130 -26 229 -49 55 -13 134 -27 175 -30 41 -4 81 -11 88 -17 7 -6 14
-9 17 -7 9 9 95 369 110 459 9 52 20 118 25 145 20 108 23 150 9 162 -8 6 -63
30 -123 53 -107 40 -186 76 -186 85 0 2 5 16 10 31 13 33 -2 54 -36 54 -19 0
-26 -7 -30 -30 -7 -33 -31 -39 -71 -17 -16 9 -20 16 -13 27 18 28 11 60 -14
72 -34 15 -55 4 -62 -32 -7 -31 -22 -37 -54 -20 -14 8 -17 18 -13 50 5 36 3
40 -21 50 -42 16 -56 12 -74 -20 -9 -16 -23 -30 -29 -30 -16 0 -16 5 -1 30 10
16 9 23 -10 43 -38 41 -260 85 -298 59z"/>
<path d="M8919 4501 c-22 -18 -23 -19 -5 -45 23 -37 60 -32 64 7 3 27 -12 57
-28 57 -4 0 -18 -8 -31 -19z"/>
<path d="M8817 4484 c-3 -5 11 -28 31 -51 20 -22 76 -88 123 -144 48 -57 97
-115 109 -129 12 -14 45 -55 73 -92 29 -38 55 -68 59 -68 11 0 10 38 -1 42 -5
2 -37 37 -71 78 -34 41 -65 77 -69 80 -4 3 -34 39 -66 80 -56 71 -79 98 -151
179 -17 19 -33 30 -37 25z"/>
<path d="M8998 4424 c-16 -8 -28 -20 -28 -25 0 -6 12 -26 28 -44 15 -17 43
-52 62 -76 19 -24 50 -59 68 -79 18 -19 43 -50 55 -67 12 -18 29 -33 38 -33
16 0 49 30 49 44 0 6 -56 76 -121 151 -44 50 -122 140 -123 142 -1 1 -13 -5
-28 -13z"/>
<path d="M8580 4331 c0 -24 45 -61 75 -61 12 0 28 -7 35 -15 16 -20 54 -16 58
6 2 11 -19 28 -67 53 -78 41 -101 45 -101 17z"/>
<path d="M5522 4278 c2 -6 10 -14 16 -16 7 -2 10 2 6 12 -7 18 -28 22 -22 4z"/>
<path d="M8471 4262 c-12 -23 0 -45 59 -104 43 -43 48 -46 66 -33 21 16 23 12
-46 98 -48 60 -63 68 -79 39z"/>
<path d="M8627 4203 c-13 -12 -7 -33 8 -33 8 0 15 9 15 20 0 20 -11 26 -23 13z"/>
<path d="M3400 4150 c0 -11 7 -20 15 -20 8 0 15 9 15 20 0 11 -7 20 -15 20 -8
0 -15 -9 -15 -20z"/>
<path d="M3524 4125 c-7 -16 20 -65 36 -65 15 0 22 38 10 60 -13 24 -38 26
-46 5z"/>
<path d="M8631 4077 c-14 -6 -26 -17 -28 -23 -5 -15 75 -96 87 -89 16 10 12
26 -16 62 -14 19 -23 41 -20 48 6 18 7 18 -23 2z"/>
<path d="M8834 4003 c-19 -4 -44 -40 -44 -64 0 -12 51 -58 66 -59 5 0 21 14
33 31 23 30 23 33 7 65 -15 33 -20 35 -62 27z"/>
<path d="M8970 3925 c-9 -11 -10 -19 -3 -26 7 -7 19 -2 39 15 l29 25 -26 1
c-15 0 -32 -7 -39 -15z"/>
<path d="M2650 3430 c-6 -11 -10 -33 -8 -48 2 -23 8 -27 33 -27 29 0 30 2 30
45 0 39 -3 45 -22 48 -14 2 -26 -4 -33 -18z"/>
<path d="M3424 3185 c-8 -19 2 -45 16 -45 5 0 10 14 10 30 0 31 -16 41 -26 15z"/>
<path d="M3577 3139 c-7 -26 2 -51 17 -46 14 5 14 59 0 64 -6 2 -14 -6 -17
-18z"/>
<path d="M3728 3093 c-6 -23 1 -45 13 -37 12 7 12 54 0 54 -5 0 -11 -8 -13
-17z"/>
<path d="M3872 3046 c2 -15 8 -26 13 -26 15 0 12 43 -3 48 -10 3 -13 -4 -10
-22z"/>
</g>
</svg>
